<svg width="192" height="169" viewBox="0 0 192 169" fill="none" xmlns="http://www.w3.org/2000/svg">
<rect width="192" height="169" rx="9" fill="#EFF1F5"/>
<g clip-path="url(#clip0_1494_4501)">
<path d="M49.8498 77.1756H51.2498V76.3561H47.6498L44.7498 89.5707L41.8498 76.3561H37.9998V77.1756H39.5998V90.0317C39.5998 91.1585 39.4498 93.2073 39.3998 93.9756H37.6498H36.4998L33.0998 74.3073H31.4998L28.8998 88.7512C28.4998 90.9024 28.0498 93.2073 27.8998 93.9756H26.0498V94.8463H30.9498V93.9756H29.0998C29.2498 92.8488 29.7498 89.3658 29.8998 87.9317H32.9998L33.9498 93.9756H32.5998V94.8463H38.3498H37.5998V94.7951H38.3498V94.8463H42.1998V93.9756H40.6498C40.5998 93.2585 40.4998 91.4658 40.4998 90.0317V80.9146L43.6498 94.8463H44.4998L47.6498 80.3512V93.9756H46.1998V94.8463H51.3498V93.9756H49.8998L49.8498 77.1756ZM37.6498 94.1293H38.1498H38.3498V94.1805H38.1498L37.6498 94.1293ZM30.0498 87.0098L31.4998 78.6098L32.7998 87.0098H30.0498ZM52.2498 77.2268H53.6498V93.9756H52.2498V94.8463H60.2498V88.2902H59.3498V88.5976C59.3498 92.1317 58.0998 93.9756 56.8998 93.9756H55.9498V85.2683C56.1998 85.3195 56.3498 85.4219 56.3998 85.4732H56.4498C57.1998 86.0878 57.3998 88.1878 57.3998 88.8537V89.161H58.2998V80.4024H57.3998V80.7098C57.3998 81.3756 57.1998 83.4756 56.4498 84.1415C56.3998 84.1927 56.2498 84.2951 55.9998 84.2951V77.1244H56.9498C58.1998 77.1244 59.3998 78.9683 59.3998 82.5537V82.861H60.2998V76.4073H52.2998L52.2498 77.2268ZM71.4498 90.339C71.3998 90.339 70.9498 90.339 70.9498 91.0561V91.7219C70.9498 93.4634 70.4498 94.078 69.9998 94.078C69.6998 94.078 69.5498 93.3098 69.5498 91.8756V89.3658C69.5498 88.1366 69.2998 87.4195 68.3998 86.4976C67.7998 85.9341 67.2498 85.6268 66.7498 85.4732C69.1498 84.3976 69.6498 82.5537 69.6498 81.1195C69.6498 79.7366 68.9498 78.3537 68.4998 77.8415C67.3998 76.561 65.8498 76.3561 64.4498 76.3561H61.2998V77.1756H62.4998V93.9756H61.2498V94.8463H66.1998V93.9756H64.7498V85.9854C65.4498 85.9854 66.1498 86.0878 66.6998 86.6512C67.3998 87.3683 67.3998 88.5463 67.3998 89.4683V91.978C67.3998 93.4634 68.1498 95 69.5498 95C70.2498 95 70.7998 94.7439 71.2498 94.1805C71.9498 93.3098 72.0498 91.7219 72.0498 91.1073C71.9998 90.5439 71.6998 90.339 71.4498 90.339ZM66.5998 84.1927C66.0498 84.961 65.5998 85.0634 64.6998 85.0634V77.2268C65.2998 77.2268 66.0998 77.3293 66.5498 77.9951C67.0498 78.661 67.2498 80.4024 67.2498 81.1195C67.2998 82.1439 67.0998 83.4756 66.5998 84.1927Z" fill="black"/>
<path d="M71.8994 77.2268H73.0994V93.9756H72.0994V94.8463H76.4494V93.9756H75.2494V77.2268H76.4494V76.4073H71.8994V77.2268Z" fill="black"/>
<path d="M83.5996 87.5731C83.2496 87.5731 83.0996 87.8292 83.0996 88.3927C83.0996 91.978 82.3996 93.9244 81.0996 93.9244H81.0496C80.4996 93.9244 80.2496 93.9244 79.7996 92.6951C79.4996 91.9268 79.1996 90.1341 79.1996 85.8829C79.1996 82.0414 79.3996 76.9707 80.9996 76.9707C82.4996 76.9707 83.0996 80.6073 83.0996 82.6049V82.9122H83.9496V76.1H83.1996V76.4073C83.1996 76.4585 83.1996 76.8683 82.7996 76.8683C82.6496 76.8683 82.4996 76.7658 82.2996 76.6122C82.0496 76.4073 81.6496 76.1 80.9996 76.1C78.2496 76.1 76.5996 81.8366 76.5996 85.9341C76.5996 90.2878 78.1496 94.8975 81.0996 94.8975C83.5496 94.8975 84.1996 90.8 84.1996 88.3927C84.1996 88.1878 84.1996 87.5731 83.5996 87.5731ZM99.6996 77.2268H100.95C100.95 77.9439 101 79.839 101 81.2219V88.2902L97.8996 76.4073H93.9496V77.2268H95.5496V90.0829C95.5496 91.0049 95.3996 93.2073 95.3496 94.0268H94.6496H93.9496H92.9496L89.9496 76.4073H88.4496L86.0996 89.3658C85.7996 91.261 85.3996 93.2585 85.2496 93.9756H83.8496V94.8463H88.0496V93.9756H86.3996C86.5496 92.9 86.9496 89.9292 87.0996 88.6488H89.7496L90.5996 93.9756H89.3996V94.8463H93.8996V94.7951H94.5996V94.8463H97.8996V93.9756H96.6496C96.5996 93.1561 96.4996 90.9536 96.4996 90.0317V79.4805L100.5 94.8463H102V81.2219C102 80.0439 102.15 77.9951 102.2 77.2268H103.85V76.4073H99.7496L99.6996 77.2268ZM95.9996 94.2317C95.9496 94.1292 95.9496 93.9756 95.9996 93.8219C95.9996 93.9756 95.9996 94.1292 95.9996 94.2317ZM87.2496 87.778L88.4996 80.6073L89.5996 87.778H87.2496ZM94.0996 94.6414V94.2317H93.9496V94.1805H94.1496H94.5996V94.2317H94.1496L94.0996 94.6414ZM117.2 89.1097C117.2 87.7268 116.75 86.3439 115.9 85.3195C115.05 84.2951 114.35 83.8341 113.4 83.5268C115 82.861 116.65 81.3244 116.65 79.0707C116.65 77.3805 116 75.9975 114.7 75.1268C113.45 74.2561 111.9 74.1024 110.85 74.1024H107V74.9219H108.65V93.9756H107V94.8463H110.75C114.85 94.8463 117.2 92.7975 117.2 89.1097ZM111.1 83.1171V74.9731C112.15 75.0244 112.6 75.178 113.15 75.639C114 76.4585 114 78.5073 114 79.378C114 81.2219 113.05 82.5536 112.45 82.8097C112 83.0146 111.5 83.0658 111.1 83.1171ZM114.3 89.4171C114.3 90.5439 114.2 91.7731 113.5 93.0024C112.85 93.9244 111.85 93.9756 111.1 93.9756V84.039C111.9 84.039 112.65 84.1414 113.35 84.961C113.85 85.5756 114.3 87.2146 114.3 89.4171ZM132.1 77.2268H133.35C133.35 77.9439 133.4 79.839 133.4 81.2219V88.2902L130.3 76.4073H126.35V77.2268H127.95V90.0829C127.95 91.0049 127.8 93.2073 127.75 94.0268H126.75H126.35H125.05L122 76.4073H120.5L118.2 89.3658C117.9 91.261 117.5 93.2585 117.35 93.9756H115.7V94.8463H120.15V93.9756H118.5C118.65 92.9 119.05 89.9292 119.2 88.6488H121.85L122.7 93.9756H121.5V94.8463H126.3H126.7H130.25V93.9756H129C128.95 93.1561 128.85 90.9536 128.85 90.0317V79.4805L132.85 94.8463H134.35V81.2219C134.35 80.0439 134.5 77.9951 134.55 77.2268H135.75V76.4073H132.1V77.2268ZM128.4 94.2317C128.35 94.1292 128.35 94.0268 128.4 93.8219C128.4 93.9756 128.4 94.1292 128.4 94.2317ZM119.35 87.778L120.6 80.6073L121.7 87.778H119.35ZM126.5 94.6414L126.45 94.2317H126.5V94.6414ZM141.5 82.9634L142.3 81.2731C142.75 80.2488 143.85 77.8927 144.15 77.2268H145.8V76.4073H142V77.2268H143.05C142.65 78.2 141.8 80.3512 141.6 80.761L139.65 84.7561V77.2268H141.05V76.4073H136.1V77.2268H137.4V94.0268H136.2V94.8975H140.65V94.0268H139.65V86.7024L140.05 85.9341L142.35 93.9756H141.6V94.8463H145.85V93.9756H144.6L141.5 82.9634ZM146.6 77.2268H147.8V94.0268H146.7V94.8975H154.35V88.2902H153.45V88.5975C153.45 92.1317 152.2 93.9756 151 93.9756H150V85.2683C150.25 85.3195 150.4 85.4219 150.45 85.4731H150.5C151.25 86.0878 151.45 88.1878 151.45 88.8536V89.161H152.35V80.4024H151.45V80.7097C151.45 81.3756 151.25 83.4756 150.5 84.1414C150.45 84.1927 150.3 84.2951 150.05 84.2951V77.1244H151C152.25 77.1244 153.45 78.9683 153.45 82.5536V82.861H154.35V76.4073H146.6V77.2268ZM165.4 90.2366C165.35 90.2366 164.9 90.2366 164.9 90.9536V91.6195C164.9 93.0536 164.55 93.9244 163.95 93.9244C163.65 93.9244 163.5 93.2073 163.5 91.7219V89.2122C163.5 87.9829 163.25 87.2658 162.35 86.3439C161.75 85.7805 161.2 85.4731 160.7 85.3195C163.1 84.2439 163.6 82.4 163.6 80.9658C163.6 79.5829 162.9 78.2 162.45 77.6878C161.35 76.4073 159.8 76.2024 158.4 76.2024H155.25V77.0219H156.5V93.8219H155.25V94.6927H160.2V93.8219H158.75V85.8829C159.45 85.8829 160.15 85.9853 160.7 86.5488C161.4 87.2658 161.4 88.4439 161.4 89.3658V91.8756C161.4 93.361 162.15 94.8975 163.55 94.8975C164.25 94.8975 164.75 94.6414 165.25 94.078C165.95 93.2073 166.05 91.6195 166.05 91.0049C165.95 90.4414 165.7 90.2366 165.4 90.2366ZM160.6 84.0902C160.05 84.8585 159.6 84.961 158.7 84.961V77.1244C159.3 77.1244 160.1 77.2268 160.55 77.8927C161.05 78.5585 161.25 80.3 161.25 81.0171C161.25 82.0414 161.1 83.3731 160.6 84.0902Z" fill="black"/>
</g>
<defs>
<clipPath id="clip0_1494_4501">
<rect width="140" height="21" fill="white" transform="translate(26 74)"/>
</clipPath>
</defs>
</svg>
