<svg width="690" height="388" viewBox="0 0 690 388" fill="none" xmlns="http://www.w3.org/2000/svg">
<rect width="690" height="388" fill="#282829"/>
<path d="M531 119H513.648C502.602 119 493.648 127.954 493.648 139V170C493.648 181.046 484.694 190 473.648 190H427" stroke="#EFF1F5"/>
<path d="M531 269H513.648C502.602 269 493.648 260.046 493.648 249V218C493.648 206.954 484.694 198 473.648 198H427" stroke="#EFF1F5"/>
<path d="M159 119H176.352C187.398 119 196.352 127.954 196.352 139V170C196.352 181.046 205.306 190 216.352 190H263" stroke="#EFF1F5"/>
<path d="M159 269H176.352C187.398 269 196.352 260.046 196.352 249V218C196.352 206.954 205.306 198 216.352 198H263" stroke="#EFF1F5"/>
<path d="M125 149V156.543V164" stroke="#EFF1F5"/>
<path d="M565 149V156.543V164" stroke="#EFF1F5"/>
<path d="M125 224V231.543V239" stroke="#EFF1F5"/>
<path d="M565 224V231.543V239" stroke="#EFF1F5"/>
<path d="M440 205.433C440 265.173 398.438 295.043 349.037 312.368C346.451 313.25 343.641 313.208 341.081 312.248C291.562 295.043 250 265.173 250 205.433V121.797C250 118.629 251.251 115.59 253.478 113.349C255.705 111.108 258.726 109.849 261.875 109.849C285.625 109.849 315.312 95.5118 335.975 77.3508C338.491 75.1882 341.691 74 345 74C348.309 74 351.509 75.1882 354.025 77.3508C374.806 95.6312 404.375 109.849 428.125 109.849C431.274 109.849 434.295 111.108 436.522 113.349C438.749 115.59 440 118.629 440 121.797V205.433Z" fill="#2D2D2E"/>
<path d="M400 200.791C400 234.785 375.938 251.782 347.338 261.64C345.84 262.142 344.213 262.118 342.731 261.572C314.062 251.782 290 234.785 290 200.791V153.198C290 151.395 290.724 149.666 292.014 148.391C293.303 147.116 295.052 146.4 296.875 146.4C310.625 146.4 327.812 138.241 339.775 127.907C341.232 126.676 343.084 126 345 126C346.916 126 348.768 126.676 350.225 127.907C362.256 138.309 379.375 146.4 393.125 146.4C394.948 146.4 396.697 147.116 397.986 148.391C399.276 149.666 400 151.395 400 153.198V200.791Z" fill="#0F0F0F"/>
<path d="M342.612 268.058L342.612 268.058L342.601 268.054C326.477 262.667 311.698 255.311 300.954 244.665C290.225 234.032 283.5 220.099 283.5 201.49V148.998C283.5 147.148 284.26 145.369 285.618 144.055C286.976 142.741 288.822 142 290.75 142C306.406 142 325.89 132.931 339.431 121.487C340.981 120.206 342.956 119.5 345 119.5C347.044 119.5 349.019 120.206 350.569 121.487C364.188 133.007 383.595 142 399.25 142C401.178 142 403.024 142.741 404.382 144.055C405.74 145.369 406.5 147.148 406.5 148.998V201.49C406.5 220.099 399.775 234.033 389.055 244.674C378.321 255.33 363.562 262.704 347.477 268.129C345.895 268.647 344.177 268.622 342.612 268.058Z" stroke="#0F0F0F"/>
<path d="M361.333 215V210.333C361.333 207.858 360.349 205.484 358.599 203.734C356.849 201.983 354.475 201 351.999 201H337.999C335.524 201 333.15 201.983 331.4 203.734C329.649 205.484 328.666 207.858 328.666 210.333V215" stroke="white" stroke-width="4" stroke-linecap="round" stroke-linejoin="round"/>
<path d="M344.999 191.667C350.154 191.667 354.333 187.488 354.333 182.333C354.333 177.179 350.154 173 344.999 173C339.845 173 335.666 177.179 335.666 182.333C335.666 187.488 339.845 191.667 344.999 191.667Z" stroke="white" stroke-width="4" stroke-linecap="round" stroke-linejoin="round"/>
<path d="M499.745 348.4H501.209L502.729 352.664L504.265 348.4H505.729V354H504.769V349.624L503.177 354H502.281L500.705 349.64V354H499.745V348.4ZM511.432 351.744C511.432 352.523 511.237 353.115 510.848 353.52C510.464 353.925 509.907 354.128 509.176 354.128C508.44 354.128 507.883 353.925 507.504 353.52C507.125 353.109 506.936 352.517 506.936 351.744V348.4H507.896V351.824C507.896 352.277 508.005 352.629 508.224 352.88C508.448 353.125 508.763 353.248 509.168 353.248C509.584 353.248 509.904 353.125 510.128 352.88C510.357 352.629 510.472 352.277 510.472 351.824V348.4H511.432V351.744ZM513.611 348.392V353.128H516.283V354H512.651V348.392H513.611ZM517.844 349.264H516.06V348.392H520.588V349.264H518.804V353.992H517.844V349.264ZM521.424 348.4H522.384V354H521.424V348.4ZM529.422 349.264H526.806V350.904H529.126V351.744H526.806V353.992H525.846V348.392H529.422V349.264ZM534.878 354H533.87L533.342 352.512H531.118L530.59 354H529.582L531.638 348.4H532.822L534.878 354ZM533.054 351.712L532.23 349.392L531.406 351.712H533.054ZM540.847 352.232C540.751 352.525 540.62 352.789 540.455 353.024C540.289 353.259 540.092 353.459 539.863 353.624C539.639 353.789 539.385 353.915 539.103 354C538.825 354.085 538.524 354.128 538.199 354.128C537.777 354.128 537.391 354.056 537.039 353.912C536.687 353.768 536.383 353.568 536.127 353.312C535.871 353.051 535.671 352.741 535.527 352.384C535.383 352.027 535.311 351.635 535.311 351.208C535.311 350.781 535.383 350.389 535.527 350.032C535.671 349.669 535.871 349.357 536.127 349.096C536.388 348.835 536.697 348.632 537.055 348.488C537.412 348.344 537.804 348.272 538.231 348.272C538.551 348.272 538.847 348.315 539.119 348.4C539.396 348.48 539.641 348.597 539.855 348.752C540.073 348.901 540.257 349.088 540.407 349.312C540.561 349.531 540.673 349.781 540.743 350.064H539.703C539.591 349.765 539.409 349.539 539.159 349.384C538.913 349.229 538.609 349.152 538.247 349.152C537.953 349.152 537.687 349.203 537.447 349.304C537.207 349.405 537.001 349.547 536.831 349.728C536.66 349.904 536.527 350.117 536.431 350.368C536.34 350.619 536.295 350.896 536.295 351.2C536.295 351.499 536.34 351.773 536.431 352.024C536.527 352.275 536.657 352.491 536.823 352.672C536.993 352.853 537.196 352.995 537.431 353.096C537.665 353.197 537.921 353.248 538.199 353.248C538.583 353.248 538.913 353.16 539.191 352.984C539.468 352.803 539.665 352.552 539.783 352.232H540.847ZM543.022 349.264H541.238V348.392H545.766V349.264H543.982V353.992H543.022V349.264ZM549.317 354.128C548.895 354.128 548.506 354.056 548.149 353.912C547.791 353.763 547.482 353.557 547.221 353.296C546.959 353.035 546.754 352.725 546.605 352.368C546.455 352.011 546.381 351.621 546.381 351.2C546.381 350.784 546.455 350.397 546.605 350.04C546.754 349.683 546.959 349.373 547.221 349.112C547.482 348.851 547.791 348.645 548.149 348.496C548.506 348.347 548.895 348.272 549.317 348.272C549.733 348.272 550.119 348.347 550.477 348.496C550.834 348.64 551.143 348.843 551.405 349.104C551.666 349.365 551.871 349.675 552.021 350.032C552.17 350.389 552.245 350.779 552.245 351.2C552.245 351.621 552.17 352.011 552.021 352.368C551.877 352.725 551.674 353.035 551.413 353.296C551.151 353.557 550.842 353.763 550.485 353.912C550.127 354.056 549.738 354.128 549.317 354.128ZM549.317 353.248C549.599 353.248 549.858 353.197 550.093 353.096C550.333 352.995 550.538 352.853 550.709 352.672C550.879 352.485 551.013 352.267 551.109 352.016C551.21 351.765 551.261 351.493 551.261 351.2C551.261 350.901 551.21 350.627 551.109 350.376C551.013 350.125 550.879 349.909 550.709 349.728C550.538 349.547 550.333 349.405 550.093 349.304C549.858 349.203 549.599 349.152 549.317 349.152C549.039 349.152 548.781 349.203 548.541 349.304C548.301 349.405 548.093 349.549 547.917 349.736C547.746 349.917 547.61 350.133 547.509 350.384C547.413 350.629 547.365 350.901 547.365 351.2C547.365 351.493 547.413 351.765 547.509 352.016C547.61 352.267 547.746 352.485 547.917 352.672C548.093 352.853 548.301 352.995 548.541 353.096C548.781 353.197 549.039 353.248 549.317 353.248ZM556.829 353.992L555.525 351.968H554.285V353.992H553.325V348.392H555.605C555.909 348.392 556.184 348.435 556.429 348.52C556.68 348.605 556.893 348.725 557.069 348.88C557.251 349.035 557.389 349.221 557.485 349.44C557.587 349.653 557.637 349.891 557.637 350.152C557.637 350.531 557.539 350.861 557.341 351.144C557.144 351.427 556.875 351.637 556.533 351.776L557.957 353.992H556.829ZM555.581 351.096C555.923 351.096 556.187 351.013 556.373 350.848C556.56 350.677 556.653 350.451 556.653 350.168C556.653 349.891 556.56 349.672 556.373 349.512C556.192 349.347 555.931 349.264 555.589 349.264H554.285V351.096H555.581ZM565.916 354H564.908L564.38 352.512H562.156L561.628 354H560.62L562.676 348.4H563.86L565.916 354ZM564.092 351.712L563.268 349.392L562.444 351.712H564.092ZM571.137 351.744C571.137 352.523 570.942 353.115 570.553 353.52C570.169 353.925 569.612 354.128 568.881 354.128C568.145 354.128 567.588 353.925 567.209 353.52C566.83 353.109 566.641 352.517 566.641 351.744V348.4H567.601V351.824C567.601 352.277 567.71 352.629 567.929 352.88C568.153 353.125 568.468 353.248 568.873 353.248C569.289 353.248 569.609 353.125 569.833 352.88C570.062 352.629 570.177 352.277 570.177 351.824V348.4H571.137V351.744ZM573.748 349.264H571.964V348.392H576.492V349.264H574.708V353.992H573.748V349.264ZM577.328 348.392H578.288V350.672H580.928V348.392H581.888V354H580.928V351.544H578.288V354H577.328V348.392ZM586.849 349.264H584.073V350.688H586.633V351.528H584.073V353.128H586.905V354H583.113V348.392H586.849V349.264ZM592.628 354H591.436L588.812 349.816V354H587.852V348.4H589.06L591.668 352.552V348.4H592.628V354ZM595.247 349.264H593.463V348.392H597.991V349.264H596.207V353.992H595.247V349.264ZM598.828 348.4H599.788V354H598.828V348.4ZM606.403 352.232C606.307 352.525 606.177 352.789 606.011 353.024C605.846 353.259 605.649 353.459 605.419 353.624C605.195 353.789 604.942 353.915 604.659 354C604.382 354.085 604.081 354.128 603.755 354.128C603.334 354.128 602.947 354.056 602.595 353.912C602.243 353.768 601.939 353.568 601.683 353.312C601.427 353.051 601.227 352.741 601.083 352.384C600.939 352.027 600.867 351.635 600.867 351.208C600.867 350.781 600.939 350.389 601.083 350.032C601.227 349.669 601.427 349.357 601.683 349.096C601.945 348.835 602.254 348.632 602.611 348.488C602.969 348.344 603.361 348.272 603.787 348.272C604.107 348.272 604.403 348.315 604.675 348.4C604.953 348.48 605.198 348.597 605.411 348.752C605.63 348.901 605.814 349.088 605.963 349.312C606.118 349.531 606.23 349.781 606.299 350.064H605.259C605.147 349.765 604.966 349.539 604.715 349.384C604.47 349.229 604.166 349.152 603.803 349.152C603.51 349.152 603.243 349.203 603.003 349.304C602.763 349.405 602.558 349.547 602.387 349.728C602.217 349.904 602.083 350.117 601.987 350.368C601.897 350.619 601.851 350.896 601.851 351.2C601.851 351.499 601.897 351.773 601.987 352.024C602.083 352.275 602.214 352.491 602.379 352.672C602.55 352.853 602.753 352.995 602.987 353.096C603.222 353.197 603.478 353.248 603.755 353.248C604.139 353.248 604.47 353.16 604.747 352.984C605.025 352.803 605.222 352.552 605.339 352.232H606.403ZM612.184 354H611.176L610.648 352.512H608.424L607.896 354H606.888L608.944 348.4H610.128L612.184 354ZM610.36 351.712L609.536 349.392L608.712 351.712H610.36ZM613.919 349.264H612.135V348.392H616.663V349.264H614.879V353.992H613.919V349.264ZM617.499 348.4H618.459V354H617.499V348.4ZM622.475 354.128C622.053 354.128 621.664 354.056 621.307 353.912C620.949 353.763 620.64 353.557 620.379 353.296C620.117 353.035 619.912 352.725 619.763 352.368C619.613 352.011 619.539 351.621 619.539 351.2C619.539 350.784 619.613 350.397 619.763 350.04C619.912 349.683 620.117 349.373 620.379 349.112C620.64 348.851 620.949 348.645 621.307 348.496C621.664 348.347 622.053 348.272 622.475 348.272C622.891 348.272 623.277 348.347 623.635 348.496C623.992 348.64 624.301 348.843 624.563 349.104C624.824 349.365 625.029 349.675 625.179 350.032C625.328 350.389 625.403 350.779 625.403 351.2C625.403 351.621 625.328 352.011 625.179 352.368C625.035 352.725 624.832 353.035 624.571 353.296C624.309 353.557 624 353.763 623.643 353.912C623.285 354.056 622.896 354.128 622.475 354.128ZM622.475 353.248C622.757 353.248 623.016 353.197 623.251 353.096C623.491 352.995 623.696 352.853 623.867 352.672C624.037 352.485 624.171 352.267 624.267 352.016C624.368 351.765 624.419 351.493 624.419 351.2C624.419 350.901 624.368 350.627 624.267 350.376C624.171 350.125 624.037 349.909 623.867 349.728C623.696 349.547 623.491 349.405 623.251 349.304C623.016 349.203 622.757 349.152 622.475 349.152C622.197 349.152 621.939 349.203 621.699 349.304C621.459 349.405 621.251 349.549 621.075 349.736C620.904 349.917 620.768 350.133 620.667 350.384C620.571 350.629 620.523 350.901 620.523 351.2C620.523 351.493 620.571 351.765 620.667 352.016C620.768 352.267 620.904 352.485 621.075 352.672C621.251 352.853 621.459 352.995 621.699 353.096C621.939 353.197 622.197 353.248 622.475 353.248ZM631.259 354H630.067L627.443 349.816V354H626.483V348.4H627.691L630.299 352.552V348.4H631.259V354Z" fill="#BEBFC2"/>
<path d="M94.738 354.128C94.0713 354.128 93.5433 353.979 93.154 353.68C92.77 353.381 92.5647 352.965 92.538 352.432H93.498C93.5247 352.704 93.6527 352.917 93.882 353.072C94.1167 353.221 94.426 353.296 94.81 353.296C95.178 353.296 95.4687 353.227 95.682 353.088C95.8953 352.949 96.002 352.757 96.002 352.512C96.002 352.32 95.9353 352.157 95.802 352.024C95.674 351.885 95.4953 351.789 95.266 351.736L94.146 351.496C93.6927 351.395 93.338 351.208 93.082 350.936C92.826 350.659 92.698 350.317 92.698 349.912C92.698 349.661 92.746 349.435 92.842 349.232C92.938 349.029 93.0713 348.856 93.242 348.712C93.418 348.568 93.626 348.459 93.866 348.384C94.1113 348.304 94.3807 348.264 94.674 348.264C94.9673 348.264 95.2313 348.304 95.466 348.384C95.706 348.464 95.9113 348.579 96.082 348.728C96.2527 348.872 96.386 349.048 96.482 349.256C96.5833 349.464 96.642 349.696 96.658 349.952H95.698C95.6713 349.675 95.5673 349.464 95.386 349.32C95.21 349.171 94.9673 349.096 94.658 349.096C94.354 349.096 94.1113 349.163 93.93 349.296C93.7487 349.429 93.658 349.611 93.658 349.84C93.658 350.037 93.7273 350.203 93.866 350.336C94.0047 350.469 94.202 350.565 94.458 350.624L95.586 350.872C96.0233 350.968 96.362 351.152 96.602 351.424C96.842 351.691 96.962 352.024 96.962 352.424C96.962 352.68 96.9113 352.915 96.81 353.128C96.7087 353.336 96.562 353.515 96.37 353.664C96.178 353.813 95.9433 353.928 95.666 354.008C95.394 354.088 95.0847 354.128 94.738 354.128ZM97.9841 348.4H98.9441V354H97.9841V348.4ZM104.944 354H103.752L101.128 349.816V354H100.168V348.4H101.376L103.984 352.552V348.4H104.944V354ZM109.035 349.152C108.742 349.152 108.47 349.203 108.219 349.304C107.974 349.4 107.761 349.539 107.579 349.72C107.398 349.901 107.257 350.117 107.155 350.368C107.059 350.619 107.011 350.893 107.011 351.192C107.011 351.496 107.059 351.776 107.155 352.032C107.257 352.283 107.395 352.499 107.571 352.68C107.747 352.856 107.958 352.995 108.203 353.096C108.449 353.197 108.718 353.248 109.011 353.248C109.262 353.248 109.491 353.213 109.699 353.144C109.907 353.069 110.086 352.968 110.235 352.84C110.39 352.712 110.513 352.557 110.603 352.376C110.694 352.195 110.745 351.997 110.755 351.784H108.891V351.008H111.731V351.528C111.731 351.912 111.662 352.264 111.523 352.584C111.39 352.899 111.201 353.171 110.955 353.4C110.715 353.629 110.425 353.808 110.083 353.936C109.747 354.064 109.377 354.128 108.971 354.128C108.545 354.128 108.15 354.056 107.787 353.912C107.43 353.768 107.121 353.568 106.859 353.312C106.598 353.051 106.393 352.741 106.243 352.384C106.099 352.027 106.027 351.635 106.027 351.208C106.027 350.781 106.102 350.389 106.251 350.032C106.401 349.669 106.609 349.36 106.875 349.104C107.142 348.843 107.459 348.64 107.827 348.496C108.195 348.347 108.598 348.272 109.035 348.272C109.702 348.272 110.259 348.435 110.707 348.76C111.155 349.085 111.459 349.547 111.619 350.144H110.579C110.329 349.483 109.814 349.152 109.035 349.152ZM113.823 348.392V353.128H116.495V354H112.863V348.392H113.823ZM121.087 349.264H118.311V350.688H120.871V351.528H118.311V353.128H121.143V354H117.351V348.392H121.087V349.264ZM126.319 354.128C125.652 354.128 125.124 353.979 124.735 353.68C124.351 353.381 124.146 352.965 124.119 352.432H125.079C125.106 352.704 125.234 352.917 125.463 353.072C125.698 353.221 126.007 353.296 126.391 353.296C126.759 353.296 127.05 353.227 127.263 353.088C127.476 352.949 127.583 352.757 127.583 352.512C127.583 352.32 127.516 352.157 127.383 352.024C127.255 351.885 127.076 351.789 126.847 351.736L125.727 351.496C125.274 351.395 124.919 351.208 124.663 350.936C124.407 350.659 124.279 350.317 124.279 349.912C124.279 349.661 124.327 349.435 124.423 349.232C124.519 349.029 124.652 348.856 124.823 348.712C124.999 348.568 125.207 348.459 125.447 348.384C125.692 348.304 125.962 348.264 126.255 348.264C126.548 348.264 126.812 348.304 127.047 348.384C127.287 348.464 127.492 348.579 127.663 348.728C127.834 348.872 127.967 349.048 128.063 349.256C128.164 349.464 128.223 349.696 128.239 349.952H127.279C127.252 349.675 127.148 349.464 126.967 349.32C126.791 349.171 126.548 349.096 126.239 349.096C125.935 349.096 125.692 349.163 125.511 349.296C125.33 349.429 125.239 349.611 125.239 349.84C125.239 350.037 125.308 350.203 125.447 350.336C125.586 350.469 125.783 350.565 126.039 350.624L127.167 350.872C127.604 350.968 127.943 351.152 128.183 351.424C128.423 351.691 128.543 352.024 128.543 352.424C128.543 352.68 128.492 352.915 128.391 353.128C128.29 353.336 128.143 353.515 127.951 353.664C127.759 353.813 127.524 353.928 127.247 354.008C126.975 354.088 126.666 354.128 126.319 354.128ZM129.565 348.4H130.525V354H129.565V348.4ZM134.612 349.152C134.319 349.152 134.047 349.203 133.796 349.304C133.551 349.4 133.338 349.539 133.156 349.72C132.975 349.901 132.834 350.117 132.732 350.368C132.636 350.619 132.588 350.893 132.588 351.192C132.588 351.496 132.636 351.776 132.732 352.032C132.834 352.283 132.972 352.499 133.148 352.68C133.324 352.856 133.535 352.995 133.78 353.096C134.026 353.197 134.295 353.248 134.588 353.248C134.839 353.248 135.068 353.213 135.276 353.144C135.484 353.069 135.663 352.968 135.812 352.84C135.967 352.712 136.09 352.557 136.18 352.376C136.271 352.195 136.322 351.997 136.332 351.784H134.468V351.008H137.308V351.528C137.308 351.912 137.239 352.264 137.1 352.584C136.967 352.899 136.778 353.171 136.532 353.4C136.292 353.629 136.002 353.808 135.66 353.936C135.324 354.064 134.954 354.128 134.548 354.128C134.122 354.128 133.727 354.056 133.364 353.912C133.007 353.768 132.698 353.568 132.436 353.312C132.175 353.051 131.97 352.741 131.82 352.384C131.676 352.027 131.604 351.635 131.604 351.208C131.604 350.781 131.679 350.389 131.828 350.032C131.978 349.669 132.186 349.36 132.452 349.104C132.719 348.843 133.036 348.64 133.404 348.496C133.772 348.347 134.175 348.272 134.612 348.272C135.279 348.272 135.836 348.435 136.284 348.76C136.732 349.085 137.036 349.547 137.196 350.144H136.156C135.906 349.483 135.391 349.152 134.612 349.152ZM143.216 354H142.024L139.4 349.816V354H138.44V348.4H139.648L142.256 352.552V348.4H143.216V354ZM149.474 354.128C149.052 354.128 148.663 354.056 148.306 353.912C147.948 353.763 147.639 353.557 147.378 353.296C147.116 353.035 146.911 352.725 146.762 352.368C146.612 352.011 146.538 351.621 146.538 351.2C146.538 350.784 146.612 350.397 146.762 350.04C146.911 349.683 147.116 349.373 147.378 349.112C147.639 348.851 147.948 348.645 148.306 348.496C148.663 348.347 149.052 348.272 149.474 348.272C149.89 348.272 150.276 348.347 150.634 348.496C150.991 348.64 151.3 348.843 151.562 349.104C151.823 349.365 152.028 349.675 152.178 350.032C152.327 350.389 152.402 350.779 152.402 351.2C152.402 351.621 152.327 352.011 152.178 352.368C152.034 352.725 151.831 353.035 151.57 353.296C151.308 353.557 150.999 353.763 150.642 353.912C150.284 354.056 149.895 354.128 149.474 354.128ZM149.474 353.248C149.756 353.248 150.015 353.197 150.25 353.096C150.49 352.995 150.695 352.853 150.866 352.672C151.036 352.485 151.17 352.267 151.266 352.016C151.367 351.765 151.418 351.493 151.418 351.2C151.418 350.901 151.367 350.627 151.266 350.376C151.17 350.125 151.036 349.909 150.866 349.728C150.695 349.547 150.49 349.405 150.25 349.304C150.015 349.203 149.756 349.152 149.474 349.152C149.196 349.152 148.938 349.203 148.698 349.304C148.458 349.405 148.25 349.549 148.074 349.736C147.903 349.917 147.767 350.133 147.666 350.384C147.57 350.629 147.522 350.901 147.522 351.2C147.522 351.493 147.57 351.765 147.666 352.016C147.767 352.267 147.903 352.485 148.074 352.672C148.25 352.853 148.458 352.995 148.698 353.096C148.938 353.197 149.196 353.248 149.474 353.248ZM158.258 354H157.066L154.442 349.816V354H153.482V348.4H154.69L157.298 352.552V348.4H158.258V354Z" fill="#BEBFC2"/>
<rect x="101" y="95" width="48" height="48" fill="#0F0F0F"/>
<rect x="541" y="95" width="48" height="48" fill="#0F0F0F"/>
<rect x="101" y="245" width="48" height="48" fill="#0F0F0F"/>
<rect x="541" y="245" width="48" height="48" fill="#0F0F0F"/>
<rect x="101" y="170" width="48" height="48" fill="#0F0F0F"/>
<path d="M115.586 199.414C115.211 199.789 115 200.298 115 200.828V203C115 203.265 115.105 203.52 115.293 203.707C115.48 203.895 115.735 204 116 204H119C119.265 204 119.52 203.895 119.707 203.707C119.895 203.52 120 203.265 120 203V202C120 201.735 120.105 201.481 120.293 201.293C120.48 201.106 120.735 201 121 201H122C122.265 201 122.52 200.895 122.707 200.707C122.895 200.52 123 200.265 123 200V199C123 198.735 123.105 198.481 123.293 198.293C123.48 198.106 123.735 198 124 198H124.172C124.702 198 125.211 197.789 125.586 197.414L126.4 196.6C127.79 197.084 129.303 197.082 130.691 196.595C132.08 196.107 133.262 195.163 134.044 193.916C134.827 192.67 135.162 191.194 134.997 189.732C134.832 188.269 134.175 186.906 133.134 185.866C132.094 184.825 130.731 184.168 129.268 184.003C127.806 183.838 126.331 184.174 125.084 184.956C123.837 185.738 122.893 186.92 122.405 188.309C121.918 189.697 121.916 191.21 122.4 192.6L115.586 199.414Z" stroke="white" stroke-width="1.5" stroke-linecap="round" stroke-linejoin="round"/>
<path d="M129.5 190C129.776 190 130 189.776 130 189.5C130 189.224 129.776 189 129.5 189C129.224 189 129 189.224 129 189.5C129 189.776 129.224 190 129.5 190Z" fill="white" stroke="white" stroke-width="1.5" stroke-linecap="round" stroke-linejoin="round"/>
<path d="M159 194H211.3H263" stroke="#EFF1F5"/>
<path d="M125 129C130.523 129 135 124.523 135 119C135 113.477 130.523 109 125 109C119.477 109 115 113.477 115 119C115 124.523 119.477 129 125 129Z" stroke="white" stroke-width="1.5" stroke-linecap="round" stroke-linejoin="round"/>
<path d="M125 109C122.432 111.696 121 115.277 121 119C121 122.723 122.432 126.304 125 129C127.568 126.304 129 122.723 129 119C129 115.277 127.568 111.696 125 109Z" stroke="white" stroke-width="1.5" stroke-linecap="round" stroke-linejoin="round"/>
<path d="M115 119H135" stroke="white" stroke-width="1.5" stroke-linecap="round" stroke-linejoin="round"/>
<path d="M565 129C570.523 129 575 124.523 575 119C575 113.477 570.523 109 565 109C559.477 109 555 113.477 555 119C555 124.523 559.477 129 565 129Z" stroke="white" stroke-width="1.5" stroke-linecap="round" stroke-linejoin="round"/>
<path d="M565 109C562.432 111.696 561 115.277 561 119C561 122.723 562.432 126.304 565 129C567.568 126.304 569 122.723 569 119C569 115.277 567.568 111.696 565 109Z" stroke="white" stroke-width="1.5" stroke-linecap="round" stroke-linejoin="round"/>
<path d="M555 119H575" stroke="white" stroke-width="1.5" stroke-linecap="round" stroke-linejoin="round"/>
<path d="M125 279C130.523 279 135 274.523 135 269C135 263.477 130.523 259 125 259C119.477 259 115 263.477 115 269C115 274.523 119.477 279 125 279Z" stroke="white" stroke-width="1.5" stroke-linecap="round" stroke-linejoin="round"/>
<path d="M125 259C122.432 261.696 121 265.277 121 269C121 272.723 122.432 276.304 125 279C127.568 276.304 129 272.723 129 269C129 265.277 127.568 261.696 125 259Z" stroke="white" stroke-width="1.5" stroke-linecap="round" stroke-linejoin="round"/>
<path d="M115 269H135" stroke="white" stroke-width="1.5" stroke-linecap="round" stroke-linejoin="round"/>
<path d="M565 279C570.523 279 575 274.523 575 269C575 263.477 570.523 259 565 259C559.477 259 555 263.477 555 269C555 274.523 559.477 279 565 279Z" stroke="white" stroke-width="1.5" stroke-linecap="round" stroke-linejoin="round"/>
<path d="M565 259C562.432 261.696 561 265.277 561 269C561 272.723 562.432 276.304 565 279C567.568 276.304 569 272.723 569 269C569 265.277 567.568 261.696 565 259Z" stroke="white" stroke-width="1.5" stroke-linecap="round" stroke-linejoin="round"/>
<path d="M555 269H575" stroke="white" stroke-width="1.5" stroke-linecap="round" stroke-linejoin="round"/>
<path d="M259.299 190H266.484V197.185H259.299V190Z" fill="#F2F218"/>
<rect x="541" y="170" width="48" height="48" fill="#0F0F0F"/>
<path d="M574 197C574 197.53 573.789 198.039 573.414 198.414C573.039 198.789 572.53 199 572 199H560L556 203V187C556 186.47 556.211 185.961 556.586 185.586C556.961 185.211 557.47 185 558 185H572C572.53 185 573.039 185.211 573.414 185.586C573.789 185.961 574 186.47 574 187V197Z" stroke="white" stroke-width="1.5" stroke-linecap="round" stroke-linejoin="round"/>
<path d="M566 190H560" stroke="white" stroke-width="1.5" stroke-linecap="round" stroke-linejoin="round"/>
<path d="M570 194H560" stroke="white" stroke-width="1.5" stroke-linecap="round" stroke-linejoin="round"/>
<path d="M537 194H529.457H522" stroke="#EFF1F5"/>
<path d="M460 194H442.902H426" stroke="#EFF1F5"/>
<path d="M430.186 190H423V197.185H430.186V190Z" fill="#F2F218"/>
<rect x="470" y="170" width="48" height="48" fill="#0F0F0F"/>
<path d="M484.586 199.414C484.211 199.789 484 200.298 484 200.828V203C484 203.265 484.105 203.52 484.293 203.707C484.48 203.895 484.735 204 485 204H488C488.265 204 488.52 203.895 488.707 203.707C488.895 203.52 489 203.265 489 203V202C489 201.735 489.105 201.481 489.293 201.293C489.48 201.106 489.735 201 490 201H491C491.265 201 491.52 200.895 491.707 200.707C491.895 200.52 492 200.265 492 200V199C492 198.735 492.105 198.481 492.293 198.293C492.48 198.106 492.735 198 493 198H493.172C493.702 198 494.211 197.789 494.586 197.414L495.4 196.6C496.79 197.084 498.303 197.082 499.691 196.595C501.08 196.107 502.262 195.163 503.044 193.916C503.827 192.67 504.162 191.194 503.997 189.732C503.832 188.269 503.175 186.906 502.134 185.866C501.094 184.825 499.731 184.168 498.268 184.003C496.806 183.838 495.331 184.174 494.084 184.956C492.837 185.738 491.893 186.92 491.405 188.309C490.918 189.697 490.916 191.21 491.4 192.6L484.586 199.414Z" stroke="white" stroke-width="1.5" stroke-linecap="round" stroke-linejoin="round"/>
<path d="M498.5 190C498.776 190 499 189.776 499 189.5C499 189.224 498.776 189 498.5 189C498.224 189 498 189.224 498 189.5C498 189.776 498.224 190 498.5 190Z" fill="white" stroke="white" stroke-width="1.5" stroke-linecap="round" stroke-linejoin="round"/>
</svg>
