<svg width="690" height="388" viewBox="0 0 690 388" fill="none" xmlns="http://www.w3.org/2000/svg">
<g clip-path="url(#clip0_2357_3039)">
<rect width="690" height="388" fill="#282829"/>
<path d="M559.991 195.776V221.952L556.575 225.441L527.532 195.776C527.532 194.279 527.532 193.439 527.532 191.942L562.872 155.846L563.422 155.285C564.342 154.895 565.156 154.55 566.076 154.161H583.619C585.085 155.658 585.911 156.5 587.379 157.997V188.118C585.917 189.611 585.098 190.447 583.636 191.94H563.745L559.991 195.774V195.776Z" fill="white"/>
<path d="M474.768 154.161L478.112 150.718L496.232 169.225C498.304 169.225 499.469 169.225 501.541 169.225L521.129 149.219L537.754 132.238H543.062L559.995 149.533V153.367L559.218 154.161L524.884 189.23L523.33 190.817L520.676 191.94H478.527C477.061 190.443 476.239 189.603 474.773 188.106V188.045" fill="white"/>
<path d="M474.768 199.669V233.553L478.127 236.985L496.232 218.493C498.304 218.493 499.469 218.493 501.541 218.493L524.835 242.285L537.769 255.494C539.843 255.494 541.005 255.494 543.077 255.494L559.995 238.214V234.349L559.218 233.555L524.884 198.487L523.33 196.899C522.41 196.51 521.596 196.165 520.676 195.776H478.527C477.061 197.273 476.239 198.113 474.773 199.61V199.671L474.768 199.669Z" fill="white"/>
<path d="M567.499 195.776H583.625C585.091 197.273 585.913 198.113 587.379 199.61V229.719C585.913 231.216 585.091 232.056 583.625 233.553H567.499L563.745 229.719V199.61L567.499 195.776Z" fill="white"/>
<path d="M429.174 190.048H371.872C343.003 190.048 319.6 166.645 319.6 137.776V137.776C319.6 108.907 296.197 85.5039 267.328 85.5039H102.967" stroke="#EFF1F5" stroke-width="0.3"/>
<path d="M429.174 197.952H371.872C343.003 197.952 319.6 221.355 319.6 250.224V250.224C319.6 279.093 296.197 302.496 267.328 302.496H102.967" stroke="#EFF1F5" stroke-width="0.3"/>
<path d="M325.707 190.048H268.406C239.536 190.048 216.133 166.645 216.133 137.776V137.776C216.133 108.907 192.73 85.5039 163.861 85.5039H-50.5" stroke="#EFF1F5" stroke-width="0.3"/>
<path d="M325.707 197.952H268.406C239.536 197.952 216.133 221.355 216.133 250.224V250.224C216.133 279.093 192.73 302.496 163.861 302.496H-50.5" stroke="#EFF1F5" stroke-width="0.3"/>
<path d="M429.174 197.952H344.569C330.779 197.952 319.6 209.13 319.6 222.92V222.92C319.6 236.71 308.421 247.889 294.632 247.889H-50.5" stroke="#EFF1F5" stroke-width="0.3"/>
<path d="M429.174 190.048H328.371C308.331 190.048 292.086 173.802 292.086 153.763V153.763C292.086 133.723 275.84 117.478 255.801 117.478H-48.9443" stroke="#EFF1F5" stroke-width="0.3"/>
<path d="M429.174 197.952H352.441C319.108 197.952 292.086 224.974 292.086 258.308V258.308C292.086 291.641 265.064 318.663 231.73 318.663H-58.9443" stroke="#EFF1F5" stroke-width="0.3"/>
<path d="M325.707 190.048H248.975C215.641 190.048 188.619 163.026 188.619 129.692V129.692C188.619 96.359 161.597 69.3369 128.264 69.3369H-82.4111" stroke="#EFF1F5" stroke-width="0.3"/>
<path d="M325.707 197.952H227.958C206.232 197.952 188.619 215.565 188.619 237.291V237.291C188.619 259.017 171.007 276.63 149.28 276.63H-82.4111" stroke="#EFF1F5" stroke-width="0.3"/>
<path d="M429.174 197.952H321.006C305.034 197.952 292.086 210.9 292.086 226.872V226.872C292.086 242.844 279.138 255.792 263.166 255.792H-48.9443" stroke="#EFF1F5" stroke-width="0.3"/>
<path d="M429.175 190.048H337.07C296.097 190.048 262.883 156.833 262.883 115.861V115.861C262.883 74.8885 229.668 41.6738 188.696 41.6738H-65.8848" stroke="#EFF1F5" stroke-width="0.3"/>
<path d="M429.175 197.952H337.07C296.097 197.952 262.883 231.167 262.883 272.139V272.139C262.883 313.111 229.668 346.326 188.696 346.326H-65.8848" stroke="#EFF1F5" stroke-width="0.3"/>
<path d="M325.708 190.048H233.603C192.63 190.048 159.416 156.833 159.416 115.861V115.861C159.416 74.8885 126.201 41.6738 85.2288 41.6738H-169.352" stroke="#EFF1F5" stroke-width="0.3"/>
<path d="M325.708 197.952H233.603C192.63 197.952 159.416 231.167 159.416 272.139V272.139C159.416 313.111 126.201 346.326 85.2288 346.326H-169.352" stroke="#EFF1F5" stroke-width="0.3"/>
<path d="M429.175 197.952H337.07C296.097 197.952 262.883 231.167 262.883 272.139V272.139C262.883 313.111 229.668 346.326 188.696 346.326H-65.8848" stroke="#EFF1F5" stroke-width="0.3"/>
<path d="M429.174 190.048H304.607C267.9 190.048 238.144 160.292 238.144 123.585V123.585C238.144 86.8785 208.387 57.1221 171.681 57.1221H-139.533" stroke="#EFF1F5" stroke-width="0.3"/>
<path d="M429.174 197.952H321.492C275.46 197.952 238.144 235.268 238.144 281.3V281.3C238.144 327.332 200.827 364.648 154.795 364.648H-139.533" stroke="#EFF1F5" stroke-width="0.3"/>
<path d="M325.707 190.048H166.292C148.831 190.048 134.677 175.894 134.677 158.433V158.433C134.677 140.973 120.522 126.818 103.062 126.818H-243" stroke="#EFF1F5" stroke-width="0.3"/>
<path d="M325.707 197.952H198.805C163.388 197.952 134.677 226.663 134.677 262.08V262.08C134.677 297.497 105.966 326.208 70.549 326.208H-243" stroke="#EFF1F5" stroke-width="0.3"/>
<path d="M429.174 197.952H321.492C275.46 197.952 238.144 235.268 238.144 281.3V281.3C238.144 327.332 200.827 364.648 154.795 364.648H-139.533" stroke="#EFF1F5" stroke-width="0.3"/>
<rect x="151.467" y="78.3184" width="14.3704" height="14.3704" fill="#F2F218"/>
<rect x="151.467" y="295.311" width="14.3704" height="14.3704" fill="#F2F218"/>
<rect x="203" y="78.3184" width="14.3704" height="14.3704" fill="#F2F218"/>
<rect x="203" y="295.311" width="14.3704" height="14.3704" fill="#F2F218"/>
<rect x="256.012" y="78.3184" width="14.3704" height="14.3704" fill="#F2F218"/>
<path d="M256.012 295.311H270.382V309.681H256.012V295.311Z" fill="#F2F218"/>
<path d="M127.396 339H141.767V353.37H127.396V339Z" fill="#F2F218"/>
<path d="M30 343H37.19V350.19H30V343Z" fill="#F2F218"/>
<path d="M127.396 34H141.767V48.3704H127.396V34Z" fill="#F2F218"/>
<path d="M30 38H37.19V45.19H30V38Z" fill="#F2F218"/>
<path d="M425.582 186.456H432.767V193.641H425.582V186.456Z" fill="#F2F218"/>
<path d="M425.582 195.437H432.767V202.622H425.582V195.437Z" fill="#F2F218"/>
</g>
<defs>
<clipPath id="clip0_2357_3039">
<rect width="690" height="388" fill="white"/>
</clipPath>
</defs>
</svg>
