<svg width="791" height="660" viewBox="0 0 791 660" fill="none" xmlns="http://www.w3.org/2000/svg">
<g clip-path="url(#clip0_1582_7680)">
<rect width="791" height="660" fill="#EFF1F5"/>
<rect y="648" width="12" height="12" fill="#E7E70D"/>
<rect x="780" width="12" height="12" fill="#E7E70D"/>
<rect width="12" height="12" fill="#E7E70D"/>
<rect x="779" y="648" width="12" height="12" fill="#E7E70D"/>
<rect x="455" y="258" width="120" height="120" transform="rotate(180 455 258)" fill="#0F0F0F"/>
<rect x="455" y="519" width="120" height="120" transform="rotate(180 455 519)" fill="#0F0F0F"/>
<rect x="435" y="370" width="80" height="80" transform="rotate(180 435 370)" fill="#0F0F0F"/>
<rect x="323" y="390" width="120" height="120" transform="rotate(180 323 390)" fill="#0F0F0F"/>
<rect x="587" y="390" width="120" height="120" transform="rotate(180 587 390)" fill="#0F0F0F"/>
<rect x="375" y="310" width="40" height="40" fill="#EFF1F5"/>
<rect x="375" y="178" width="40" height="40" fill="#EFF1F5"/>
<rect x="375" y="439" width="40" height="40" fill="#EFF1F5"/>
<rect x="507" y="190" width="40" height="40" fill="#0F0F0F"/>
<rect x="505" y="430" width="40" height="40" fill="#0F0F0F"/>
<rect x="243" y="430" width="40" height="40" fill="#0F0F0F"/>
<rect x="243" y="190" width="40" height="40" fill="#0F0F0F"/>
<rect x="243" y="310" width="40" height="40" fill="#EFF1F5"/>
<rect x="507" y="310" width="40" height="40" fill="#EFF1F5"/>
</g>
<defs>
<clipPath id="clip0_1582_7680">
<rect width="791" height="660" fill="white"/>
</clipPath>
</defs>
</svg>
