<svg width="140" height="26" viewBox="0 0 140 26" fill="none" xmlns="http://www.w3.org/2000/svg">
<path fill-rule="evenodd" clip-rule="evenodd" d="M0.623258 7.71638C1.45427 6.88537 2.8016 6.88537 3.63261 7.71638L17.8188 21.9026C18.6499 22.7336 18.6499 24.081 17.8188 24.912C16.9878 25.743 15.6405 25.743 14.8095 24.912L0.623257 10.7257C-0.207753 9.89473 -0.207753 8.54739 0.623258 7.71638Z" fill="#7550F8"/>
<path fill-rule="evenodd" clip-rule="evenodd" d="M1.84637e-07 2.12794C1.84637e-07 0.95271 0.952709 0 2.12794 0H16.3142C17.4894 0 18.4421 0.95271 18.4421 2.12794C18.4421 3.30316 17.4894 4.25587 16.3142 4.25587H2.12794C0.952709 4.25587 1.84637e-07 3.30316 1.84637e-07 2.12794Z" fill="#7550F8"/>
<path fill-rule="evenodd" clip-rule="evenodd" d="M4.25587 11.349L4.25587 23.4073C4.25587 24.5825 3.30316 25.5352 2.12794 25.5352C0.952711 25.5352 1.32678e-06 24.5825 1.27541e-06 23.4073L1.47974e-07 9.22106C1.23305e-07 8.6567 0.224193 8.11545 0.623258 7.71638C1.02232 7.31732 1.56357 7.09312 2.12794 7.09312L16.3142 7.09312C17.4894 7.09312 18.4421 8.04583 18.4421 9.22106C18.4421 10.3963 17.4894 11.349 16.3142 11.349L4.25587 11.349Z" fill="#7550F8"/>
<path d="M39.126 23.4083L34.7566 15.691H32.884V23.4083H28.9119V3.60434H36.3455C37.8776 3.60434 39.1827 3.87861 40.2609 4.42714C41.339 4.95676 42.1429 5.68499 42.6725 6.61183C43.221 7.51975 43.4953 8.54116 43.4953 9.67606C43.4953 10.9812 43.117 12.1634 42.3604 13.2226C41.6038 14.2629 40.4784 14.9817 38.9841 15.3789L43.7223 23.4083H39.126ZM32.884 12.7119H36.2036C37.2817 12.7119 38.0856 12.4566 38.6153 11.9459C39.1449 11.4162 39.4097 10.688 39.4097 9.76117C39.4097 8.85325 39.1449 8.1534 38.6153 7.66161C38.0856 7.1509 37.2817 6.89555 36.2036 6.89555H32.884V12.7119Z" fill="white"/>
<path d="M61.6998 15.2087C61.6998 15.7761 61.662 16.2868 61.5863 16.7408H50.0955C50.19 17.8757 50.5872 18.7647 51.2871 19.4078C51.987 20.0509 52.8476 20.3725 53.869 20.3725C55.3444 20.3725 56.3941 19.7388 57.0183 18.4715H61.3026C60.8486 19.9847 59.9785 21.2331 58.6923 22.2167C57.4061 23.1814 55.8267 23.6637 53.9541 23.6637C52.4409 23.6637 51.079 23.3327 49.8685 22.6707C48.6768 21.9897 47.7405 21.0345 47.0596 19.805C46.3976 18.5756 46.0666 17.1569 46.0666 15.5492C46.0666 13.9225 46.3976 12.4944 47.0596 11.2649C47.7216 10.0354 48.6485 9.08969 49.8401 8.42767C51.0318 7.76564 52.4031 7.43463 53.9541 7.43463C55.4484 7.43463 56.7819 7.75618 57.9546 8.39929C59.1463 9.0424 60.0637 9.95978 60.7068 11.1514C61.3688 12.3242 61.6998 13.6766 61.6998 15.2087ZM57.5858 14.0738C57.5669 13.0524 57.198 12.239 56.4793 11.6338C55.7605 11.0096 54.8809 10.6975 53.8406 10.6975C52.857 10.6975 52.0248 11.0001 51.3439 11.6054C50.6818 12.1917 50.2752 13.0146 50.1238 14.0738H57.5858Z" fill="white"/>
<path d="M71.8057 10.9528H69.0536V23.4083H65.0247V10.9528H63.2372V7.68998H65.0247V6.89555C65.0247 4.96622 65.5732 3.5476 66.6703 2.63968C67.7674 1.73176 69.4224 1.30617 71.6355 1.36292V4.71087C70.6708 4.69196 69.9993 4.85273 69.621 5.1932C69.2427 5.53367 69.0536 6.14841 69.0536 7.03741V7.68998H71.8057V10.9528Z" fill="white"/>
<path d="M81.3595 23.6637C79.8463 23.6637 78.4844 23.3327 77.2738 22.6707C76.0633 21.9897 75.1081 21.0345 74.4082 19.805C73.7273 18.5756 73.3868 17.1569 73.3868 15.5492C73.3868 13.9414 73.7367 12.5228 74.4366 11.2933C75.1554 10.0638 76.1295 9.11806 77.359 8.45604C78.5884 7.7751 79.9598 7.43463 81.473 7.43463C82.9862 7.43463 84.3575 7.7751 85.587 8.45604C86.8165 9.11806 87.7811 10.0638 88.481 11.2933C89.1997 12.5228 89.5591 13.9414 89.5591 15.5492C89.5591 17.1569 89.1903 18.5756 88.4526 19.805C87.7338 21.0345 86.7503 21.9897 85.5019 22.6707C84.2724 23.3327 82.8916 23.6637 81.3595 23.6637ZM81.3595 20.2022C82.0783 20.2022 82.7497 20.032 83.3739 19.6915C84.017 19.3322 84.5277 18.8025 84.906 18.1027C85.2843 17.4028 85.4735 16.5517 85.4735 15.5492C85.4735 14.0549 85.0763 12.9105 84.2819 12.1161C83.5063 11.3027 82.5511 10.8961 81.4162 10.8961C80.2813 10.8961 79.3261 11.3027 78.5506 12.1161C77.794 12.9105 77.4157 14.0549 77.4157 15.5492C77.4157 17.0434 77.7846 18.1973 78.5222 19.0106C79.2788 19.805 80.2246 20.2022 81.3595 20.2022Z" fill="white"/>
<path d="M101.779 23.4083L96.445 16.7124V23.4083H92.4728V2.4127H96.445V14.3575L101.722 7.68998H106.886L99.9632 15.5775L106.943 23.4083H101.779Z" fill="white"/>
<path d="M123.881 7.68998V23.4083H119.88V21.4223C119.37 22.1032 118.698 22.6423 117.866 23.0395C117.052 23.4178 116.163 23.6069 115.199 23.6069C113.969 23.6069 112.882 23.3516 111.936 22.8409C110.99 22.3113 110.243 21.5452 109.694 20.5427C109.165 19.5213 108.9 18.3107 108.9 16.911V7.68998H112.872V16.3436C112.872 17.592 113.184 18.5566 113.809 19.2376C114.433 19.8996 115.284 20.2306 116.362 20.2306C117.459 20.2306 118.32 19.8996 118.944 19.2376C119.568 18.5566 119.88 17.592 119.88 16.3436V7.68998H123.881Z" fill="white"/>
<path d="M133.815 23.6637C132.529 23.6637 131.375 23.4367 130.353 22.9828C129.332 22.5099 128.519 21.8762 127.913 21.0818C127.327 20.2874 127.005 19.4078 126.949 18.4432H130.949C131.025 19.0484 131.318 19.5497 131.829 19.9469C132.358 20.3441 133.011 20.5427 133.786 20.5427C134.543 20.5427 135.129 20.3914 135.546 20.0888C135.981 19.7861 136.198 19.3984 136.198 18.9255C136.198 18.4148 135.933 18.0365 135.404 17.7906C134.893 17.5258 134.07 17.2421 132.935 16.9394C131.763 16.6557 130.798 16.3625 130.041 16.0599C129.304 15.7572 128.661 15.2938 128.112 14.6696C127.582 14.0454 127.318 13.2037 127.318 12.1445C127.318 11.2744 127.563 10.4799 128.055 9.76117C128.566 9.0424 129.285 8.47495 130.212 8.05882C131.157 7.64269 132.264 7.43463 133.531 7.43463C135.404 7.43463 136.898 7.9075 138.014 8.85325C139.13 9.78009 139.745 11.0379 139.858 12.6268H136.056C136 12.0026 135.735 11.5108 135.262 11.1514C134.808 10.7731 134.193 10.584 133.418 10.584C132.699 10.584 132.141 10.7164 131.744 10.9812C131.365 11.246 131.176 11.6148 131.176 12.0877C131.176 12.6173 131.441 13.024 131.971 13.3077C132.5 13.5725 133.323 13.8468 134.439 14.1305C135.574 14.4143 136.51 14.7074 137.248 15.0101C137.986 15.3127 138.619 15.7856 139.149 16.4287C139.697 17.0529 139.981 17.8852 140 18.9255C140 19.8334 139.745 20.6467 139.234 21.3655C138.742 22.0843 138.023 22.6517 137.078 23.0679C136.151 23.4651 135.063 23.6637 133.815 23.6637Z" fill="white"/>
</svg>
