<svg width="589" height="620" viewBox="0 0 589 620" fill="none" xmlns="http://www.w3.org/2000/svg">
<rect x="141.848" y="-0.734375" width="419.575" height="419.575" fill="#FFFF25"/>
<rect x="283.376" y="423.415" width="142.037" height="12.1251" transform="rotate(-180 283.376 423.415)" fill="#878708"/>
<rect x="283.376" y="411.29" width="142.037" height="12.1251" transform="rotate(-180 283.376 411.29)" fill="#3A3A03"/>
<rect x="283.376" y="399.165" width="142.037" height="12.1251" transform="rotate(-180 283.376 399.165)" fill="#878708"/>
<rect x="283.376" y="387.04" width="142.037" height="12.1251" transform="rotate(-180 283.376 387.04)" fill="black"/>
<rect x="283.376" y="374.915" width="142.037" height="12.1251" transform="rotate(-180 283.376 374.915)" fill="#272702"/>
<rect x="283.376" y="362.79" width="142.037" height="12.1251" transform="rotate(-180 283.376 362.79)" fill="#3A3A03"/>
<rect x="283.376" y="350.665" width="142.037" height="12.1251" transform="rotate(-180 283.376 350.665)" fill="#3A3A03"/>
<rect x="283.376" y="338.54" width="142.037" height="12.1251" transform="rotate(-180 283.376 338.54)" fill="#878708"/>
<rect x="283.376" y="326.415" width="142.037" height="12.1251" transform="rotate(-180 283.376 326.415)" fill="#3A3A03"/>
<rect x="283.376" y="314.289" width="142.037" height="12.1251" transform="rotate(-180 283.376 314.289)" fill="#272702"/>
<rect x="283.376" y="302.164" width="142.037" height="12.1251" transform="rotate(-180 283.376 302.164)" fill="black"/>
<rect x="283.376" y="290.039" width="142.037" height="12.1251" transform="rotate(-180 283.376 290.039)" fill="black"/>
<rect x="283.376" y="277.914" width="142.037" height="12.1251" transform="rotate(-180 283.376 277.914)" fill="#878708"/>
<rect x="283.376" y="265.789" width="142.037" height="12.1251" transform="rotate(-180 283.376 265.789)" fill="#3A3A03"/>
<rect x="283.376" y="253.664" width="142.037" height="12.1251" transform="rotate(-180 283.376 253.664)" fill="#3A3A03"/>
<rect x="283.376" y="241.539" width="142.037" height="12.1251" transform="rotate(-180 283.376 241.539)" fill="#878708"/>
<rect x="283.376" y="229.414" width="142.037" height="12.1251" transform="rotate(-180 283.376 229.414)" fill="#3A3A03"/>
<rect x="283.376" y="217.289" width="142.037" height="12.1251" transform="rotate(-180 283.376 217.289)" fill="#3A3A03"/>
<rect x="283.376" y="205.164" width="142.037" height="12.1251" transform="rotate(-180 283.376 205.164)" fill="#9382FF"/>
<rect x="283.376" y="193.038" width="142.037" height="12.1251" transform="rotate(-180 283.376 193.038)" fill="black"/>
<rect x="283.376" y="180.913" width="142.037" height="12.1251" transform="rotate(-180 283.376 180.913)" fill="#878708"/>
<rect x="283.376" y="168.788" width="142.037" height="12.1251" transform="rotate(-180 283.376 168.788)" fill="black"/>
<rect x="283.376" y="156.663" width="142.037" height="12.1251" transform="rotate(-180 283.376 156.663)" fill="black"/>
<rect x="283.376" y="144.538" width="142.037" height="12.1251" transform="rotate(-180 283.376 144.538)" fill="#272702"/>
<rect x="283.376" y="132.413" width="142.037" height="12.1251" transform="rotate(-180 283.376 132.413)" fill="#3A3A03"/>
<rect x="283.376" y="120.288" width="142.037" height="12.1251" transform="rotate(-180 283.376 120.288)" fill="black"/>
<rect x="283.376" y="108.163" width="142.037" height="12.1251" transform="rotate(-180 283.376 108.163)" fill="#9382FF"/>
<rect x="283.376" y="96.0377" width="142.037" height="12.1251" transform="rotate(-180 283.376 96.0377)" fill="#3A3A03"/>
<rect x="283.376" y="83.9126" width="142.037" height="12.1251" transform="rotate(-180 283.376 83.9126)" fill="#3A3A03"/>
<rect x="283.376" y="71.7875" width="142.037" height="12.1251" transform="rotate(-180 283.376 71.7875)" fill="#878708"/>
<rect x="283.376" y="59.6624" width="142.037" height="12.1251" transform="rotate(-180 283.376 59.6624)" fill="#3A3A03"/>
<rect x="283.376" y="47.5374" width="142.037" height="12.1251" transform="rotate(-180 283.376 47.5374)" fill="#FFFF25"/>
<rect x="283.376" y="35.4122" width="142.037" height="12.1251" transform="rotate(-180 283.376 35.4122)" fill="#272702"/>
<rect x="283.376" y="23.2871" width="142.037" height="12.1251" transform="rotate(-180 283.376 23.2871)" fill="black"/>
<rect x="283.376" y="11.162" width="142.037" height="12.1251" transform="rotate(-180 283.376 11.162)" fill="#3A3A03"/>
<rect width="142.037" height="12.1251" transform="matrix(-1 8.74228e-08 8.74228e-08 1 142.037 -0.873291)" fill="#3A3A03"/>
<rect width="142.037" height="12.1251" transform="matrix(-1 8.74228e-08 8.74228e-08 1 142.037 11.2518)" fill="#9382FF"/>
<rect width="142.037" height="12.1251" transform="matrix(-1 8.74228e-08 8.74228e-08 1 142.037 23.377)" fill="black"/>
<rect width="142.037" height="12.1251" transform="matrix(-1 8.74228e-08 8.74228e-08 1 142.037 35.5021)" fill="#878708"/>
<rect width="142.037" height="12.1251" transform="matrix(-1 8.74228e-08 8.74228e-08 1 142.037 47.6272)" fill="black"/>
<rect width="142.037" height="12.1251" transform="matrix(-1 8.74228e-08 8.74228e-08 1 142.037 59.7523)" fill="black"/>
<rect width="142.037" height="12.1251" transform="matrix(-1 8.74228e-08 8.74228e-08 1 142.037 71.8773)" fill="#272702"/>
<rect width="142.037" height="12.1251" transform="matrix(-1 8.74228e-08 8.74228e-08 1 142.037 84.0024)" fill="#3A3A03"/>
<rect width="142.037" height="12.1251" transform="matrix(-1 8.74228e-08 8.74228e-08 1 142.037 96.1276)" fill="black"/>
<rect width="142.037" height="12.1251" transform="matrix(-1 8.74228e-08 8.74228e-08 1 142.037 108.253)" fill="#9382FF"/>
<rect width="142.037" height="12.1251" transform="matrix(-1 8.74228e-08 8.74228e-08 1 142.037 120.378)" fill="#3A3A03"/>
<rect width="142.037" height="12.1251" transform="matrix(-1 8.74228e-08 8.74228e-08 1 142.037 132.503)" fill="#3A3A03"/>
<rect width="142.037" height="12.1251" transform="matrix(-1 8.74228e-08 8.74228e-08 1 142.037 144.628)" fill="#878708"/>
<rect width="142.037" height="12.1251" transform="matrix(-1 8.74228e-08 8.74228e-08 1 142.037 156.753)" fill="#3A3A03"/>
<rect width="142.037" height="12.1251" transform="matrix(-1 8.74228e-08 8.74228e-08 1 142.037 168.878)" fill="#FFFF25"/>
<rect width="142.037" height="12.1251" transform="matrix(-1 8.74228e-08 8.74228e-08 1 142.037 181.003)" fill="#272702"/>
<rect width="142.037" height="12.1251" transform="matrix(-1 8.74228e-08 8.74228e-08 1 142.037 193.128)" fill="black"/>
<rect width="142.037" height="12.1251" transform="matrix(-1 8.74228e-08 8.74228e-08 1 142.037 205.253)" fill="#3A3A03"/>
<rect x="561.424" y="-0.734375" width="419.575" height="419.575" fill="#3A3A03"/>
<rect x="141.848" y="419" width="209.787" height="209.787" fill="#272702"/>
<rect x="561.43" y="418.841" width="209.787" height="209.787" fill="#DCD6FF"/>
<rect x="351.747" y="629" width="105.747" height="104.041" transform="rotate(-180 351.747 629)" fill="#FFFF25"/>
</svg>
